<?xml version="1.0" encoding="utf-8"?>
<!-- Generator: Adobe Illustrator 19.1.0, SVG Export Plug-In . SVG Version: 6.00 Build 0)  -->
<svg version="1.1" id="Layer_1" xmlns="http://www.w3.org/2000/svg" xmlns:xlink="http://www.w3.org/1999/xlink" x="0px" y="0px"
	 viewBox="0 0 500 500" style="enable-background:new 0 0 500 500;" xml:space="preserve">
<style type="text/css">
	.st0{fill:#D9D9D8;}
	.st1{fill:#98C03D;}
	.st2{fill:#62B146;}
	.st3{fill:#BACE32;}
	.st4{fill:#F4A21E;}
	.st5{fill:#096B37;}
	.st6{fill:#F6BA18;}
	.st7{fill:#67163A;}
	.st8{fill:#43B5E8;}
	.st9{fill:#2397D4;}
	.st10{fill:#EA7D24;}
	.st11{fill:#EB6724;}
	.st12{fill:#23356C;}
	.st13{fill:#134A91;}
	.st14{fill:#E54B25;}
	.st15{fill:#E63289;}
	.st16{fill:#222B54;}
	.st17{fill:#D2157B;}
	.st18{fill:#821B4A;}
	.st19{fill:#C01E67;}
	.st20{fill:#231F20;}
</style>
<g>
	<g>
		<g>
			<polygon class="st0" points="310.5,228.7 279.9,198.2 249.4,228.7 279.9,228.7 279.9,259.3 218.8,259.3 218.8,167.6 279.9,167.6 
				310.5,198.2 310.5,167.6 279.9,137 218.8,137 188.2,167.6 188.2,259.3 188.2,259.3 218.8,289.8 279.9,289.8 310.5,259.3 			"/>
			<g>
				<polygon class="st1" points="189.2,200 189.2,169.5 219.7,169.5 				"/>
				<polygon class="st2" points="189.2,200 219.7,169.5 219.7,200 				"/>
				<polygon class="st3" points="189.2,169.5 219.7,169.5 219.7,138.9 				"/>
				<polygon class="st4" points="189.2,261.1 219.7,291.7 219.7,261.1 				"/>
				<polygon class="st2" points="219.7,230.6 189.2,230.6 189.2,200 				"/>
				<polygon class="st5" points="219.7,230.6 189.2,200 219.7,200 				"/>
				<polygon class="st1" points="189.2,261.1 189.2,230.6 219.7,230.6 				"/>
				<polygon class="st6" points="189.2,261.1 219.7,230.6 219.7,261.1 				"/>
				<polygon class="st7" points="250.3,230.6 280.8,200 280.8,230.6 				"/>
				<g>
					<polygon class="st8" points="219.7,138.9 219.7,169.5 250.3,169.5 					"/>
					<polygon class="st9" points="219.7,138.9 250.3,169.5 250.3,138.9 					"/>
					<polygon class="st10" points="219.7,291.7 219.7,261.1 250.3,261.1 					"/>
					<polygon class="st11" points="219.7,291.7 250.3,261.1 250.3,291.7 					"/>
				</g>
				<g>
					<polygon class="st12" points="250.3,169.5 280.8,169.5 280.8,138.9 					"/>
					<polygon class="st13" points="250.3,169.5 280.8,138.9 250.3,138.9 					"/>
					<polygon class="st14" points="280.8,291.7 250.3,291.7 250.3,261.1 					"/>
					<polygon class="st15" points="280.8,291.7 250.3,261.1 280.8,261.1 					"/>
				</g>
				<g>
					<polygon class="st16" points="311.4,169.5 280.8,138.9 280.8,169.5 					"/>
					<polygon class="st13" points="311.4,200 311.4,169.5 280.8,169.5 					"/>
					<polygon class="st17" points="280.8,291.7 280.8,261.1 311.4,261.1 					"/>
					<polygon class="st18" points="280.8,200 311.4,230.6 280.8,230.6 					"/>
					<polygon class="st18" points="311.4,261.1 280.8,261.1 280.8,230.6 					"/>
					<polygon class="st19" points="311.4,261.1 280.8,230.6 311.4,230.6 					"/>
				</g>
			</g>
		</g>
		<g>
			<path class="st20" d="M139.8,337.9l-0.1,0.1c-0.6,0.1-0.9,0.3-1,0.6c-0.1,0.2-0.1,1.2-0.1,2.7c0,0.8,0,1.5,0.1,2.3
				c-3,1.1-5.8,1.7-8.2,1.7c-3.2,0-5.8-0.9-7.8-2.7c-2-1.8-3-4.3-3-7.4c0-4.1,1.8-7,5.3-8.7c1.6-0.8,3.7-1.2,6.2-1.2
				c1.4,0,2.9,0.2,4.4,0.5c1.2,0.3,2.2,0.6,2.9,0.9l0.1,0.2c-0.2,0.8-0.4,2.2-0.6,4.1l-0.1,0.1h-0.8l-0.1-0.1c0-0.2,0-0.5-0.1-1.1
				c0-0.5-0.1-0.9-0.1-1.1c-0.4-0.5-1.1-1-2-1.4c-1-0.4-2.1-0.6-3.3-0.6c-3.2,0-5.4,1.3-6.6,3.9c-0.6,1.2-0.8,2.6-0.8,4.1
				c0,2.5,0.7,4.6,2,6.2c1.4,1.7,3.2,2.6,5.4,2.6c1.2,0,2.3-0.3,3.4-0.8c0.1-0.6,0.1-1.5,0.1-2.6c0-0.9,0-1.4-0.1-1.6
				c-0.1-0.1-0.2-0.2-0.5-0.3c-0.2-0.1-1-0.1-2.3-0.2l-0.1-0.1v-0.9l0.1-0.1c1.3,0,2.7,0,4.1,0c0.8,0,2.1,0,3.7,0l0.1,0.1V337.9z"/>
			<path class="st20" d="M150.9,344.7l-0.1,0.1c-0.9-0.1-2.3-0.1-4.2-0.1c-1.9,0-3.3,0-4.2,0.1l-0.1-0.1v-0.9l0.1-0.1
				c0.9-0.1,1.4-0.1,1.6-0.1c0.3-0.1,0.4-0.2,0.5-0.5c0.1-0.6,0.2-2,0.2-4.2v-7.2c0-2.1-0.1-3.5-0.2-4.2c0-0.3-0.2-0.4-0.5-0.5
				c-0.1,0-0.7-0.1-1.6-0.1l-0.1-0.1v-0.9l0.1-0.1c0.9,0.1,2.3,0.1,4.2,0.1c1.9,0,3.3,0,4.2-0.1l0.1,0.1v0.9l-0.1,0.1
				c-0.9,0.1-1.4,0.1-1.6,0.1c-0.3,0.1-0.4,0.2-0.5,0.5c-0.1,0.7-0.2,2-0.2,4.2v7.2c0,2.1,0.1,3.5,0.2,4.2c0,0.3,0.2,0.4,0.5,0.5
				c0.1,0,0.7,0.1,1.6,0.1l0.1,0.1V344.7z"/>
			<path class="st20" d="M171.4,344.7l-0.1,0.1c-0.1,0-0.2,0-0.5,0c-1.2,0-2-0.1-2.3-0.1c-0.5,0-1.2,0-2.2,0.1
				c0-0.2-0.2-0.6-0.5-1.1l-3.4-5.6l-1.5-2.3c-0.2-0.3-0.5-0.6-0.8-0.8l0.1-0.5c0.2,0,0.4,0,0.5,0c0.9,0,1.6-0.1,2.1-0.4
				c0.5-0.3,0.9-0.7,1.3-1.3c0.4-0.6,0.6-1.4,0.6-2.3c0-1.5-0.6-2.6-1.7-3.1c-0.5-0.3-1.3-0.4-2.4-0.4c-0.5,0-0.9,0-1.3,0.1
				c-0.1,0.9-0.1,2.4-0.1,4.5v7.1c0,2.1,0.1,3.5,0.2,4.2c0,0.3,0.2,0.4,0.5,0.5c0.1,0,0.7,0.1,1.6,0.1l0.1,0.1v0.9l-0.1,0.1
				c-0.9-0.1-2.3-0.1-4.2-0.1c-1.9,0-3.3,0-4.2,0.1l-0.1-0.1v-0.9l0.1-0.1c0.9-0.1,1.4-0.1,1.6-0.1c0.3-0.1,0.4-0.2,0.5-0.5
				c0.1-0.6,0.2-2,0.2-4.2v-7.2c0-2.1-0.1-3.5-0.2-4.2c0-0.3-0.2-0.4-0.5-0.5c-0.1,0-0.7-0.1-1.6-0.1l-0.1-0.1v-0.9l0.1-0.1
				c0.9,0.1,2.3,0.1,4.2,0.1c1.1,0,2,0,2.7,0c1.4-0.1,2.4-0.1,3.1-0.1c1.6,0,2.7,0.1,3.4,0.4c1,0.4,1.6,1,2,1.9
				c0.2,0.4,0.2,1,0.2,1.6c0,2.5-1.4,4.2-4.1,5.2c0.5,0.8,0.9,1.5,1.4,2.3l2.1,3.2c1.2,1.9,2,3,2.5,3.2c0.2,0.1,0.5,0.2,0.9,0.2
				l0.1,0.1V344.7z"/>
			<path class="st20" d="M181.4,344.7l-0.1,0.1c-0.9-0.1-2.3-0.1-4.2-0.1c-1.9,0-3.3,0-4.2,0.1l-0.1-0.1v-0.9l0.1-0.1
				c0.9-0.1,1.4-0.1,1.6-0.1c0.3-0.1,0.4-0.2,0.5-0.5c0.1-0.6,0.2-2,0.2-4.2v-7.2c0-2.1-0.1-3.5-0.2-4.2c0-0.3-0.2-0.4-0.5-0.5
				c-0.1,0-0.7-0.1-1.6-0.1l-0.1-0.1v-0.9l0.1-0.1c0.9,0.1,2.3,0.1,4.2,0.1c1.9,0,3.3,0,4.2-0.1l0.1,0.1v0.9l-0.1,0.1
				c-0.9,0.1-1.4,0.1-1.6,0.1c-0.3,0.1-0.4,0.2-0.5,0.5c-0.1,0.7-0.2,2-0.2,4.2v7.2c0,2.1,0.1,3.5,0.2,4.2c0,0.3,0.2,0.4,0.5,0.5
				c0.1,0,0.7,0.1,1.6,0.1l0.1,0.1V344.7z"/>
			<path class="st20" d="M202,344.7l-0.1,0.1c-0.1,0-0.2,0-0.5,0c-1.2,0-2-0.1-2.3-0.1c-0.5,0-1.2,0-2.2,0.1c0-0.2-0.2-0.6-0.5-1.1
				l-3.4-5.6l-1.5-2.3c-0.2-0.3-0.5-0.6-0.8-0.8l0.1-0.5c0.2,0,0.4,0,0.5,0c0.9,0,1.6-0.1,2.1-0.4c0.5-0.3,0.9-0.7,1.3-1.3
				c0.4-0.6,0.6-1.4,0.6-2.3c0-1.5-0.6-2.6-1.7-3.1c-0.5-0.3-1.3-0.4-2.4-0.4c-0.5,0-0.9,0-1.3,0.1c-0.1,0.9-0.1,2.4-0.1,4.5v7.1
				c0,2.1,0.1,3.5,0.2,4.2c0,0.3,0.2,0.4,0.5,0.5c0.1,0,0.7,0.1,1.6,0.1l0.1,0.1v0.9l-0.1,0.1c-0.9-0.1-2.3-0.1-4.2-0.1
				c-1.9,0-3.3,0-4.2,0.1l-0.1-0.1v-0.9l0.1-0.1c0.9-0.1,1.4-0.1,1.6-0.1c0.3-0.1,0.4-0.2,0.5-0.5c0.1-0.6,0.2-2,0.2-4.2v-7.2
				c0-2.1-0.1-3.5-0.2-4.2c0-0.3-0.2-0.4-0.5-0.5c-0.1,0-0.7-0.1-1.6-0.1l-0.1-0.1v-0.9l0.1-0.1c0.9,0.1,2.3,0.1,4.2,0.1
				c1.1,0,2,0,2.7,0c1.4-0.1,2.4-0.1,3.1-0.1c1.6,0,2.7,0.1,3.4,0.4c1,0.4,1.6,1,2,1.9c0.2,0.4,0.2,1,0.2,1.6c0,2.5-1.4,4.2-4.1,5.2
				c0.5,0.8,0.9,1.5,1.4,2.3l2.1,3.2c1.2,1.9,2,3,2.5,3.2c0.2,0.1,0.5,0.2,0.9,0.2l0.1,0.1V344.7z"/>
			<path class="st20" d="M223.3,344.7l-0.1,0.1c-2-0.1-3.2-0.1-3.6-0.1c-1.7,0-3.2,0-4.6,0.1l-0.1-0.1v-0.9l0.1-0.1l1.2-0.1
				c0.5,0,0.7-0.2,0.7-0.5c0-0.2-0.1-0.6-0.4-1.3l-1.1-2.9c-1.2,0-2.5,0-3.8,0c-0.7,0-1.8,0-3.1,0l-0.6,1.7c-0.5,1.3-0.7,2-0.7,2.4
				c0,0.3,0.2,0.5,0.6,0.6c0.2,0,0.7,0.1,1.4,0.1l0.1,0.1v0.9l-0.1,0.1c-1.7-0.1-2.7-0.1-3.2-0.1c-0.4,0-1.3,0-2.7,0.1l-0.1-0.1
				v-0.9l0.1-0.1c0.9-0.1,1.5-0.2,1.7-0.6s1-2.2,2.4-5.6l3.5-8.8c0.3-0.7,0.7-1.7,1.2-3.1h1.9l7.2,16.9c0.3,0.6,0.5,1,0.8,1.1
				c0.3,0.1,0.7,0.2,1.3,0.2l0.1,0.1V344.7z M214.7,337.4l-2.9-7.1l-2.8,7.1c0.7,0,1.7,0,2.9,0C213,337.4,214,337.4,214.7,337.4z"/>
			<path class="st20" d="M234,326.7l-0.1,0.1c-0.9,0.1-1.4,0.1-1.6,0.1c-0.3,0.1-0.4,0.2-0.5,0.5c-0.1,0.7-0.2,2.1-0.2,4.2v10.1
				c0,1.8-0.2,3.2-0.6,4.2c-0.4,1.2-1.2,2.2-2.4,3.2c-1.3,1.1-2.5,1.7-3.6,1.7c-0.4,0-0.7-0.1-1.1-0.2c0-0.7,0.1-1.5,0.1-2.5
				l0.3-0.2c0.7,0.7,1.4,1,1.9,1c0.8,0,1.2-0.4,1.3-1.2c0.1-1.1,0.2-2.7,0.2-4.8v-11.3c0-2.1-0.1-3.5-0.2-4.2c0-0.3-0.2-0.4-0.5-0.5
				c-0.1,0-0.7-0.1-1.9-0.1l-0.1-0.1v-0.9l0.1-0.1c1.2,0.1,2.7,0.1,4.5,0.1c2,0,3.4,0,4.2-0.1l0.1,0.1V326.7z"/>
			<path class="st20" d="M259.6,325.7c-0.1,0.7-0.2,1.4-0.2,2.1l0,2.3l-0.1,0.1h-0.9l-0.1-0.1c0-1.2-0.1-1.8-0.1-2
				c-0.1-0.4-0.4-0.6-0.9-0.6c-0.2,0-1,0-2.5,0h-1.8c0,0.3,0,1.6,0,3.8v7.7c0,2.1,0.1,3.5,0.2,4.2c0,0.3,0.2,0.4,0.5,0.5
				c0.1,0,0.7,0.1,1.6,0.1l0.1,0.1v0.9l-0.1,0.1c-0.9-0.1-2.3-0.1-4.2-0.1c-1.9,0-3.3,0-4.2,0.1l-0.1-0.1v-0.9l0.1-0.1
				c0.9-0.1,1.4-0.1,1.6-0.1c0.3-0.1,0.4-0.2,0.5-0.5c0.1-0.6,0.2-2,0.2-4.2v-7.7c0-2.2,0-3.5,0-3.8H247c-1.6,0-2.6,0-2.8,0.1
				c-0.1,0.1-0.2,0.1-0.3,0.2c-0.1,0.1-0.1,0.4-0.2,0.9c-0.1,0.5-0.1,1-0.1,1.5l-0.1,0.1h-0.9l-0.1-0.1l0-2.3c0-0.6-0.1-1.3-0.2-2
				l0.1-0.1c0.5,0.1,2.5,0.1,5.8,0.1h5.5c3.1,0,5,0,5.8-0.1L259.6,325.7z"/>
			<path class="st20" d="M279.6,344.7l-0.1,0.1c-0.1,0-0.2,0-0.5,0c-1.2,0-2-0.1-2.3-0.1c-0.5,0-1.2,0-2.2,0.1
				c0-0.2-0.2-0.6-0.5-1.1l-3.4-5.6l-1.5-2.3c-0.2-0.3-0.5-0.6-0.8-0.8l0.1-0.5c0.2,0,0.4,0,0.5,0c0.9,0,1.6-0.1,2.1-0.4
				c0.5-0.3,0.9-0.7,1.3-1.3c0.4-0.6,0.6-1.4,0.6-2.3c0-1.5-0.6-2.6-1.7-3.1c-0.5-0.3-1.3-0.4-2.4-0.4c-0.5,0-0.9,0-1.3,0.1
				c-0.1,0.9-0.1,2.4-0.1,4.5v7.1c0,2.1,0.1,3.5,0.2,4.2c0,0.3,0.2,0.4,0.5,0.5c0.1,0,0.7,0.1,1.6,0.1l0.1,0.1v0.9l-0.1,0.1
				c-0.9-0.1-2.3-0.1-4.2-0.1c-1.9,0-3.3,0-4.2,0.1l-0.1-0.1v-0.9l0.1-0.1c0.9-0.1,1.4-0.1,1.6-0.1c0.3-0.1,0.4-0.2,0.5-0.5
				c0.1-0.6,0.2-2,0.2-4.2v-7.2c0-2.1-0.1-3.5-0.2-4.2c0-0.3-0.2-0.4-0.5-0.5c-0.1,0-0.7-0.1-1.6-0.1l-0.1-0.1v-0.9l0.1-0.1
				c0.9,0.1,2.3,0.1,4.2,0.1c1.1,0,2,0,2.7,0c1.4-0.1,2.4-0.1,3.1-0.1c1.6,0,2.7,0.1,3.4,0.4c1,0.4,1.6,1,2,1.9
				c0.2,0.4,0.2,1,0.2,1.6c0,2.5-1.4,4.2-4.1,5.2c0.5,0.8,0.9,1.5,1.4,2.3l2.1,3.2c1.2,1.9,2,3,2.5,3.2c0.2,0.1,0.5,0.2,0.9,0.2
				l0.1,0.1V344.7z"/>
			<path class="st20" d="M300.9,344.7l-0.1,0.1c-2-0.1-3.2-0.1-3.6-0.1c-1.7,0-3.2,0-4.6,0.1l-0.1-0.1v-0.9l0.1-0.1l1.2-0.1
				c0.5,0,0.7-0.2,0.7-0.5c0-0.2-0.1-0.6-0.4-1.3l-1.1-2.9c-1.2,0-2.5,0-3.8,0c-0.7,0-1.8,0-3.1,0l-0.6,1.7c-0.5,1.3-0.7,2-0.7,2.4
				c0,0.3,0.2,0.5,0.6,0.6c0.2,0,0.7,0.1,1.4,0.1l0.1,0.1v0.9l-0.1,0.1c-1.7-0.1-2.7-0.1-3.2-0.1c-0.4,0-1.3,0-2.7,0.1l-0.1-0.1
				v-0.9l0.1-0.1c0.9-0.1,1.5-0.2,1.7-0.6c0.2-0.3,1-2.2,2.4-5.6l3.5-8.8c0.3-0.7,0.7-1.7,1.2-3.1h1.9l7.2,16.9
				c0.3,0.6,0.5,1,0.8,1.1c0.3,0.1,0.7,0.2,1.3,0.2l0.1,0.1V344.7z M292.3,337.4l-2.9-7.1l-2.8,7.1c0.7,0,1.7,0,2.9,0
				C290.6,337.4,291.6,337.4,292.3,337.4z"/>
			<path class="st20" d="M323.3,334.1c0,3.1-1,5.6-3,7.6c-1,1-2.2,1.7-3.5,2.3c-1.5,0.6-3.2,0.9-5.2,0.8l-4.8-0.1
				c-1.3,0-2.4,0-3.2,0.1l-0.1-0.1v-0.4l0.1-0.2c0.7-0.4,1-0.7,1.1-0.8c0.1-0.2,0.1-0.8,0.1-1.8l0-3v-6.9c0-2.1-0.1-3.5-0.2-4.2
				c0-0.3-0.2-0.4-0.5-0.5c-0.1,0-0.7-0.1-1.6-0.1l-0.1-0.1v-0.9l0.1-0.1c1,0.1,1.9,0.1,2.7,0.1c2.1,0,4,0,5.7-0.1
				c0.8,0,1.7,0,2.5,0c2.3,0,4.1,0.3,5.4,0.8c1.4,0.6,2.4,1.5,3.2,2.8C322.9,330.4,323.3,332.1,323.3,334.1z M319.1,334.7
				c0-2.5-0.6-4.4-1.8-5.8c-0.6-0.7-1.4-1.2-2.4-1.5c-0.9-0.3-2.2-0.4-3.8-0.4c-0.8,0-1.6,0.1-2.4,0.2c-0.1,1-0.1,3.5-0.1,7.3l0,5.9
				c0,1.3,0,2.2,0.1,2.6c0.8,0.1,1.6,0.2,2.4,0.2c1.8,0,3.2-0.3,4.3-0.8c1.1-0.6,2-1.5,2.7-2.9C318.8,338.2,319.1,336.6,319.1,334.7
				z"/>
			<path class="st20" d="M334.3,344.7l-0.1,0.1c-0.9-0.1-2.3-0.1-4.2-0.1c-1.9,0-3.3,0-4.2,0.1l-0.1-0.1v-0.9l0.1-0.1
				c0.9-0.1,1.4-0.1,1.6-0.1c0.3-0.1,0.4-0.2,0.5-0.5c0.1-0.6,0.2-2,0.2-4.2v-7.2c0-2.1-0.1-3.5-0.2-4.2c0-0.3-0.2-0.4-0.5-0.5
				c-0.1,0-0.7-0.1-1.6-0.1l-0.1-0.1v-0.9l0.1-0.1c0.9,0.1,2.3,0.1,4.2,0.1c1.9,0,3.3,0,4.2-0.1l0.1,0.1v0.9l-0.1,0.1
				c-0.9,0.1-1.4,0.1-1.6,0.1c-0.3,0.1-0.4,0.2-0.5,0.5c-0.1,0.7-0.2,2-0.2,4.2v7.2c0,2.1,0.1,3.5,0.2,4.2c0,0.3,0.2,0.4,0.5,0.5
				c0.1,0,0.7,0.1,1.6,0.1l0.1,0.1V344.7z"/>
			<path class="st20" d="M357.6,326.7l-0.1,0.1c-0.9,0.1-1.4,0.1-1.6,0.1c-0.3,0.1-0.4,0.2-0.5,0.5c-0.1,0.7-0.2,2-0.2,4.2v5.5
				c0,4.1,0.1,6.7,0.2,7.9l-0.2,0.1c-1-0.2-1.8-0.3-2.3-0.4c-2.4-2.7-6.6-7.7-12.4-14.9v8.9c0,2.1,0.1,3.5,0.2,4.2
				c0,0.3,0.2,0.4,0.5,0.5c0.1,0,0.7,0.1,1.6,0.1l0.1,0.1v0.9l-0.1,0.1c-1-0.1-2-0.1-2.9-0.1c-1,0-2.1,0-3.1,0.1l-0.1-0.1v-0.9
				l0.1-0.1c0.9-0.1,1.4-0.1,1.6-0.1c0.3-0.1,0.4-0.2,0.5-0.5c0.1-0.6,0.2-2,0.2-4.2v-7.2c0-2.1-0.1-3.5-0.2-4.2
				c0-0.3-0.2-0.4-0.5-0.5c-0.1,0-0.7-0.1-1.6-0.1l-0.1-0.1v-0.9l0.1-0.1c0.9,0.1,1.7,0.1,2.5,0.1c1.2,0,2.2,0,3-0.1
				c3.3,4.3,7.1,9,11.5,13.9v-7.9c0-2.1-0.1-3.5-0.2-4.2c0-0.3-0.2-0.4-0.5-0.5c-0.1,0-0.7-0.1-1.6-0.1l-0.1-0.1v-0.9l0.1-0.1
				c1,0.1,2,0.1,2.9,0.1c1.2,0,2.2,0,3.1-0.1l0.1,0.1V326.7z"/>
			<path class="st20" d="M380.2,337.9l-0.1,0.1c-0.6,0.1-0.9,0.3-1,0.6c-0.1,0.2-0.1,1.2-0.1,2.7c0,0.8,0,1.5,0.1,2.3
				c-3,1.1-5.8,1.7-8.2,1.7c-3.2,0-5.8-0.9-7.8-2.7c-2-1.8-3-4.3-3-7.4c0-4.1,1.8-7,5.3-8.7c1.6-0.8,3.7-1.2,6.2-1.2
				c1.4,0,2.9,0.2,4.4,0.5c1.2,0.3,2.2,0.6,2.9,0.9l0.1,0.2c-0.2,0.8-0.4,2.2-0.6,4.1l-0.1,0.1h-0.8l-0.1-0.1c0-0.2,0-0.5-0.1-1.1
				c0-0.5-0.1-0.9-0.1-1.1c-0.4-0.5-1.1-1-2-1.4c-1-0.4-2.1-0.6-3.3-0.6c-3.2,0-5.4,1.3-6.6,3.9c-0.6,1.2-0.8,2.6-0.8,4.1
				c0,2.5,0.7,4.6,2,6.2c1.4,1.7,3.2,2.6,5.4,2.6c1.2,0,2.3-0.3,3.4-0.8c0.1-0.6,0.1-1.5,0.1-2.6c0-0.9,0-1.4-0.1-1.6
				c-0.1-0.1-0.2-0.2-0.5-0.3c-0.2-0.1-1-0.1-2.3-0.2l-0.1-0.1v-0.9l0.1-0.1c1.3,0,2.7,0,4.1,0c0.8,0,2.1,0,3.7,0l0.1,0.1V337.9z"/>
		</g>
	</g>
	<g>
		<path class="st6" d="M376.9,363.8H245.1c-1.7,0-3.2-1.4-3.2-3.2v-6.9c0-1.7,1.4-3.2,3.2-3.2h131.8c1.7,0,3.2,1.4,3.2,3.2v6.9
			C380,362.3,378.6,363.8,376.9,363.8z"/>
		<g>
			<path d="M249.3,360.8v-3l-2.2-4h1l1,1.9c0.3,0.5,0.5,1,0.7,1.4h0c0.2-0.5,0.4-0.9,0.7-1.4l1-1.9h1l-2.3,4v3H249.3z"/>
			<path d="M257.1,358.2c0,1.9-1.3,2.7-2.5,2.7c-1.4,0-2.4-1-2.4-2.6c0-1.7,1.1-2.7,2.5-2.7C256.1,355.6,257.1,356.7,257.1,358.2z
				 M253.1,358.3c0,1.1,0.6,1.9,1.5,1.9c0.9,0,1.5-0.8,1.5-2c0-0.9-0.4-1.9-1.5-1.9C253.6,356.3,253.1,357.3,253.1,358.3z"/>
			<path d="M262.4,359.4c0,0.5,0,1,0,1.4h-0.8l-0.1-0.8h0c-0.2,0.4-0.8,0.9-1.7,0.9c-0.8,0-1.7-0.4-1.7-2.2v-2.9h0.9v2.8
				c0,1,0.3,1.6,1.1,1.6c0.6,0,1-0.4,1.2-0.8c0.1-0.1,0.1-0.3,0.1-0.5v-3.1h0.9V359.4z"/>
			<path d="M263.9,357.3c0-0.6,0-1.1,0-1.6h0.8l0,1h0c0.2-0.7,0.8-1.1,1.4-1.1c0.1,0,0.2,0,0.3,0v0.9c-0.1,0-0.2,0-0.3,0
				c-0.6,0-1.1,0.5-1.2,1.2c0,0.1,0,0.3,0,0.4v2.7h-0.9V357.3z"/>
			<path d="M269.6,353.8h3.8v0.8h-2.9v2.3h2.6v0.7h-2.6v3.2h-0.9V353.8z"/>
			<path d="M276.9,360.8l-0.1-0.6h0c-0.3,0.4-0.8,0.7-1.5,0.7c-1,0-1.5-0.7-1.5-1.4c0-1.2,1.1-1.9,3-1.9v-0.1c0-0.4-0.1-1.2-1.1-1.2
				c-0.5,0-1,0.1-1.3,0.4l-0.2-0.6c0.4-0.3,1-0.4,1.7-0.4c1.5,0,1.9,1,1.9,2.1v1.9c0,0.4,0,0.9,0.1,1.2H276.9z M276.8,358.2
				c-1,0-2.1,0.2-2.1,1.1c0,0.6,0.4,0.9,0.9,0.9c0.7,0,1.1-0.4,1.2-0.8c0-0.1,0.1-0.2,0.1-0.3V358.2z"/>
			<path d="M279.4,355.8l1,2.8c0.2,0.5,0.3,0.9,0.4,1.3h0c0.1-0.4,0.3-0.8,0.4-1.3l1-2.8h1l-2,5h-0.9l-1.9-5H279.4z"/>
			<path d="M288.5,358.2c0,1.9-1.3,2.7-2.5,2.7c-1.4,0-2.4-1-2.4-2.6c0-1.7,1.1-2.7,2.5-2.7C287.5,355.6,288.5,356.7,288.5,358.2z
				 M284.5,358.3c0,1.1,0.6,1.9,1.5,1.9c0.9,0,1.5-0.8,1.5-2c0-0.9-0.4-1.9-1.5-1.9S284.5,357.3,284.5,358.3z"/>
			<path d="M289.6,357.3c0-0.6,0-1.1,0-1.6h0.8l0,1h0c0.2-0.7,0.8-1.1,1.4-1.1c0.1,0,0.2,0,0.3,0v0.9c-0.1,0-0.2,0-0.3,0
				c-0.6,0-1.1,0.5-1.2,1.2c0,0.1,0,0.3,0,0.4v2.7h-0.9V357.3z"/>
			<path d="M294.1,354.3c0,0.3-0.2,0.6-0.6,0.6c-0.3,0-0.6-0.2-0.6-0.6c0-0.3,0.2-0.6,0.6-0.6C293.9,353.8,294.1,354,294.1,354.3z
				 M293.1,360.8v-5h0.9v5H293.1z"/>
			<path d="M296.6,354.3v1.4h1.3v0.7h-1.3v2.7c0,0.6,0.2,1,0.7,1c0.2,0,0.4,0,0.5-0.1l0,0.7c-0.2,0.1-0.5,0.1-0.8,0.1
				c-0.4,0-0.8-0.1-1-0.4c-0.3-0.3-0.4-0.7-0.4-1.3v-2.7h-0.8v-0.7h0.8v-1.2L296.6,354.3z"/>
			<path d="M299.4,358.4c0,1.2,0.8,1.7,1.7,1.7c0.7,0,1-0.1,1.4-0.3l0.2,0.7c-0.3,0.1-0.9,0.3-1.7,0.3c-1.5,0-2.5-1-2.5-2.5
				c0-1.5,0.9-2.7,2.4-2.7c1.6,0,2.1,1.4,2.1,2.4c0,0.2,0,0.3,0,0.4H299.4z M302.1,357.8c0-0.6-0.2-1.5-1.3-1.5
				c-0.9,0-1.3,0.9-1.4,1.5H302.1z"/>
			<path d="M307.1,360.8l-1.8-7h1l0.8,3.5c0.2,0.9,0.4,1.7,0.5,2.4h0c0.1-0.7,0.3-1.5,0.6-2.4l0.9-3.5h0.9l0.9,3.6
				c0.2,0.8,0.4,1.7,0.5,2.4h0c0.1-0.8,0.3-1.5,0.6-2.4l0.9-3.5h0.9l-2,7h-0.9l-0.9-3.6c-0.2-0.9-0.4-1.6-0.5-2.3h0
				c-0.1,0.7-0.3,1.4-0.5,2.3l-1,3.6H307.1z"/>
			<path d="M315.6,354.3c0,0.3-0.2,0.6-0.6,0.6c-0.3,0-0.6-0.2-0.6-0.6c0-0.3,0.2-0.6,0.6-0.6C315.3,353.8,315.6,354,315.6,354.3z
				 M314.5,360.8v-5h0.9v5H314.5z"/>
			<path d="M317,357.1c0-0.5,0-0.9,0-1.4h0.8l0.1,0.8h0c0.2-0.5,0.8-0.9,1.7-0.9c0.7,0,1.8,0.4,1.8,2.1v3h-0.9v-2.9
				c0-0.8-0.3-1.5-1.2-1.5c-0.6,0-1.1,0.4-1.2,0.9c0,0.1-0.1,0.3-0.1,0.4v3H317V357.1z"/>
			<path d="M327.1,353.4v6.1c0,0.4,0,1,0,1.3h-0.8l0-0.9h0c-0.3,0.6-0.9,1-1.7,1c-1.2,0-2.2-1-2.2-2.6c0-1.7,1-2.7,2.3-2.7
				c0.8,0,1.3,0.4,1.5,0.8h0v-3H327.1z M326.2,357.8c0-0.1,0-0.3,0-0.4c-0.1-0.6-0.6-1.1-1.3-1.1c-0.9,0-1.5,0.8-1.5,1.9
				c0,1,0.5,1.9,1.5,1.9c0.6,0,1.2-0.4,1.3-1.1c0-0.1,0-0.2,0-0.4V357.8z"/>
			<path d="M333.1,358.2c0,1.9-1.3,2.7-2.5,2.7c-1.4,0-2.4-1-2.4-2.6c0-1.7,1.1-2.7,2.5-2.7C332.2,355.6,333.1,356.7,333.1,358.2z
				 M329.2,358.3c0,1.1,0.6,1.9,1.5,1.9c0.9,0,1.5-0.8,1.5-2c0-0.9-0.4-1.9-1.5-1.9S329.2,357.3,329.2,358.3z"/>
			<path d="M334.6,355.8l0.7,2.6c0.1,0.6,0.3,1.1,0.4,1.6h0c0.1-0.5,0.3-1,0.4-1.6l0.8-2.6h0.8l0.8,2.5c0.2,0.6,0.3,1.1,0.4,1.6h0
				c0.1-0.5,0.2-1,0.4-1.6l0.7-2.5h0.9l-1.6,5h-0.8l-0.8-2.4c-0.2-0.6-0.3-1.1-0.4-1.7h0c-0.1,0.6-0.3,1.1-0.5,1.7l-0.8,2.4h-0.8
				l-1.5-5H334.6z"/>
			<path d="M344.1,353.9c0.4-0.1,1-0.1,1.7-0.1c0.9,0,1.5,0.2,2,0.6c0.4,0.3,0.6,0.8,0.6,1.5c0,0.6-0.2,1.1-0.5,1.5
				c-0.5,0.5-1.3,0.8-2.1,0.8c-0.3,0-0.5,0-0.7-0.1v2.8h-0.9V353.9z M345,357.2c0.2,0.1,0.4,0.1,0.7,0.1c1.1,0,1.8-0.5,1.8-1.5
				c0-0.9-0.7-1.4-1.7-1.4c-0.4,0-0.7,0-0.9,0.1V357.2z"/>
			<path d="M352.1,360.8l-0.1-0.6h0c-0.3,0.4-0.8,0.7-1.5,0.7c-1,0-1.5-0.7-1.5-1.4c0-1.2,1.1-1.9,3-1.9v-0.1c0-0.4-0.1-1.2-1.1-1.2
				c-0.5,0-1,0.1-1.3,0.4l-0.2-0.6c0.4-0.3,1-0.4,1.7-0.4c1.5,0,1.9,1,1.9,2.1v1.9c0,0.4,0,0.9,0.1,1.2H352.1z M352,358.2
				c-1,0-2.1,0.2-2.1,1.1c0,0.6,0.4,0.9,0.9,0.9c0.7,0,1.1-0.4,1.2-0.8c0-0.1,0.1-0.2,0.1-0.3V358.2z"/>
			<path d="M354.3,357.3c0-0.6,0-1.1,0-1.6h0.8l0,1h0c0.2-0.7,0.8-1.1,1.4-1.1c0.1,0,0.2,0,0.3,0v0.9c-0.1,0-0.2,0-0.3,0
				c-0.6,0-1.1,0.5-1.2,1.2c0,0.1,0,0.3,0,0.4v2.7h-0.9V357.3z"/>
			<path d="M359.1,354.3v1.4h1.3v0.7h-1.3v2.7c0,0.6,0.2,1,0.7,1c0.2,0,0.4,0,0.5-0.1l0,0.7c-0.2,0.1-0.5,0.1-0.8,0.1
				c-0.4,0-0.8-0.1-1-0.4c-0.3-0.3-0.4-0.7-0.4-1.3v-2.7h-0.8v-0.7h0.8v-1.2L359.1,354.3z"/>
			<path d="M361.4,357.1c0-0.5,0-0.9,0-1.4h0.8l0.1,0.8h0c0.2-0.5,0.8-0.9,1.7-0.9c0.7,0,1.8,0.4,1.8,2.1v3h-0.9v-2.9
				c0-0.8-0.3-1.5-1.2-1.5c-0.6,0-1.1,0.4-1.2,0.9c0,0.1-0.1,0.3-0.1,0.4v3h-0.9V357.1z"/>
			<path d="M367.7,358.4c0,1.2,0.8,1.7,1.7,1.7c0.7,0,1-0.1,1.4-0.3l0.2,0.7c-0.3,0.1-0.9,0.3-1.7,0.3c-1.5,0-2.5-1-2.5-2.5
				c0-1.5,0.9-2.7,2.4-2.7c1.6,0,2.1,1.4,2.1,2.4c0,0.2,0,0.3,0,0.4H367.7z M370.4,357.8c0-0.6-0.2-1.5-1.3-1.5
				c-0.9,0-1.3,0.9-1.4,1.5H370.4z"/>
			<path d="M372.4,357.3c0-0.6,0-1.1,0-1.6h0.8l0,1h0c0.2-0.7,0.8-1.1,1.4-1.1c0.1,0,0.2,0,0.3,0v0.9c-0.1,0-0.2,0-0.3,0
				c-0.6,0-1.1,0.5-1.2,1.2c0,0.1,0,0.3,0,0.4v2.7h-0.9V357.3z"/>
		</g>
	</g>
</g>
</svg>
